<?xml version="1.0" standalone="no"?>
<!DOCTYPE svg PUBLIC "-//W3C//DTD SVG 20010904//EN"
 "http://www.w3.org/TR/2001/REC-SVG-20010904/DTD/svg10.dtd">
<svg version="1.0" xmlns="http://www.w3.org/2000/svg"
 width="1024.000000pt" height="1024.000000pt" viewBox="0 0 1024.000000 1024.000000"
 preserveAspectRatio="xMidYMid meet">

<g transform="translate(0.000000,1024.000000) scale(0.100000,-0.100000)"
fill="#000000" stroke="none">
<path d="M4725 8774 c-1144 -122 -2151 -756 -2751 -1731 -294 -477 -466 -977
-526 -1528 -20 -184 -17 -707 5 -865 105 -748 427 -1438 926 -1988 375 -411
847 -740 1361 -947 477 -192 940 -275 1465 -262 568 14 1055 137 1565 392 719
360 1320 973 1666 1700 262 551 377 1091 361 1690 -12 447 -87 821 -244 1220
-298 758 -852 1410 -1549 1826 -457 271 -1013 450 -1554 499 -159 14 -568 11
-725 -6z m-2805 -1894 c-6 -11 -13 -20 -16 -20 -2 0 0 9 6 20 6 11 13 20 16
20 2 0 0 -9 -6 -20z m-57 -105 c-3 -9 -8 -14 -10 -11 -3 3 -2 9 2 15 9 16 15
13 8 -4z m2197 -752 l0 -653 1053 0 1054 0 -1 655 -1 655 239 0 239 0 -7 -37
c-3 -21 -6 -725 -6 -1565 l0 -1528 -232 0 -233 0 3 670 3 670 -1053 -2 -1053
-3 -2 -665 -2 -665 -231 -3 -230 -2 0 1565 0 1565 230 -2 231 -3 -1 -652z"/>
</g>
</svg>
